<svg xmlns="http://www.w3.org/2000/svg" width="137" height="38" viewBox="0 0 137 38" fill="none">
  <g clip-path="url(#clip0_238_1369)">
    <path fill-rule="evenodd" clip-rule="evenodd" d="M136.165 11.2169C136.344 11.2169 136.464 11.2778 136.584 11.3386C136.703 11.4603 136.703 11.582 136.703 11.7645V15.1714C136.703 15.3539 136.643 15.4755 136.584 15.5972C136.464 15.7189 136.344 15.7189 136.165 15.7189H133.233V29.3464C133.233 29.5289 133.173 29.6506 133.113 29.7723C132.993 29.8939 132.874 29.8939 132.694 29.8939H128.326C128.146 29.8939 128.026 29.8331 127.907 29.7723C127.787 29.6506 127.787 29.5289 127.787 29.3464V15.7189H124.855C124.675 15.7189 124.556 15.6581 124.436 15.5972C124.316 15.4755 124.316 15.3539 124.316 15.1714V11.7645C124.316 11.582 124.376 11.4603 124.436 11.3386C124.556 11.2169 124.675 11.2169 124.855 11.2169H127.787V6.41082C127.787 6.2283 127.847 6.10663 127.907 5.98496C128.026 5.86328 128.146 5.86328 128.326 5.86328H132.694C132.874 5.86328 132.993 5.92412 133.113 5.98496C133.233 6.10663 133.233 6.2283 133.233 6.41082V11.2169H136.165Z" fill="white"/>
    <path fill-rule="evenodd" clip-rule="evenodd" d="M123.539 20.2815C123.539 21.1332 123.479 21.7416 123.299 22.1066C123.12 22.4717 122.761 22.6542 122.222 22.6542H111.331C111.571 23.6884 112.109 24.4184 112.887 24.966C113.665 25.4527 114.682 25.696 115.939 25.696C116.538 25.696 117.136 25.6352 117.674 25.4527C118.213 25.2702 118.811 24.966 119.41 24.601C119.53 24.4793 119.649 24.4793 119.829 24.4793C119.948 24.4793 120.068 24.5401 120.248 24.7226L122.162 26.6086C122.282 26.7302 122.282 26.8519 122.282 26.9736C122.282 27.0953 122.222 27.2778 122.043 27.3995C121.145 28.312 120.128 28.9812 118.991 29.5288C117.854 30.0155 116.657 30.2588 115.341 30.2588C113.486 30.2588 111.87 29.8329 110.374 28.9812C108.938 28.1295 107.801 26.9736 107.023 25.5135C106.245 24.0534 105.826 22.4717 105.826 20.7074C105.826 18.9431 106.245 17.3613 107.023 15.9013C107.801 14.4412 108.938 13.2853 110.314 12.4944C111.69 11.6427 113.246 11.2168 114.982 11.2168C116.657 11.2168 118.153 11.6427 119.47 12.4335C120.786 13.2853 121.744 14.3803 122.462 15.7796C123.18 17.1788 123.539 18.6998 123.539 20.4032V20.2815ZM115.042 15.8404C114.084 15.8404 113.246 16.1446 112.588 16.6921C111.93 17.2397 111.451 18.0305 111.272 19.0039H118.692C118.512 17.9697 118.093 17.1788 117.435 16.6921C116.777 16.1446 115.999 15.8404 115.042 15.8404Z" fill="white"/>
    <path fill-rule="evenodd" clip-rule="evenodd" d="M103.437 11.5209C103.617 11.5209 103.736 11.5817 103.856 11.6426C103.976 11.7642 103.976 11.8859 103.976 12.0684V29.8328C103.976 31.6579 103.497 33.1789 102.54 34.2739C101.582 35.4298 100.385 36.2207 98.8894 36.7074C97.4533 37.1941 95.9573 37.4375 94.4014 37.4375C92.8456 37.4375 91.4094 37.1941 89.9733 36.7683C88.597 36.3424 87.4002 35.734 86.4427 35.004C86.323 34.8823 86.2034 34.7606 86.2034 34.5781C86.2034 34.4565 86.2034 34.3348 86.2632 34.2131L87.6994 31.5971C87.819 31.4146 87.9986 31.2929 88.1182 31.2929C88.2379 31.2929 88.3576 31.2929 88.4174 31.3538C89.2552 31.8405 90.093 32.2055 90.9906 32.4488C91.8882 32.6922 92.9054 32.8139 93.9826 32.8139C95.2392 32.8139 96.3762 32.5097 97.3934 31.9621C98.4107 31.4146 98.9493 30.5629 98.9493 29.2853V27.521C97.5131 29.1636 95.7778 30.0153 93.6834 30.0153C92.0677 30.0153 90.5717 29.5895 89.2552 28.7378C87.9387 27.886 86.9214 26.7301 86.1435 25.2701C85.4254 23.81 85.0664 22.2282 85.0664 20.5248C85.0664 18.8213 85.4254 17.2396 86.1435 15.7795C86.9214 14.3194 87.9387 13.1635 89.2552 12.3118C90.5717 11.46 92.0677 11.0342 93.6834 11.0342C95.6581 11.0342 97.3934 11.8251 98.8296 13.4677L98.9493 12.0076C99.0091 11.6426 99.1886 11.46 99.4878 11.46H103.497L103.437 11.5209ZM94.3416 24.9659C95.4786 24.9659 96.436 24.54 97.2139 23.6275C97.9918 22.7757 98.4107 21.7415 98.4107 20.5856C98.4107 19.4297 97.9918 18.3955 97.2139 17.5437C96.436 16.692 95.4786 16.2053 94.3416 16.2053C93.2046 16.2053 92.2472 16.6312 91.4693 17.4829C90.6914 18.3346 90.2725 19.308 90.2725 20.5248C90.2725 21.7415 90.6315 22.7757 91.4094 23.6275C92.1874 24.4792 93.1448 24.8442 94.3416 24.8442V24.9659Z" fill="white"/>
    <path fill-rule="evenodd" clip-rule="evenodd" d="M83.2116 11.2169C83.3911 11.2169 83.5108 11.2778 83.6305 11.3386C83.7502 11.4603 83.7502 11.582 83.7502 11.7645V15.1714C83.7502 15.3539 83.6903 15.4755 83.6305 15.5972C83.5108 15.7189 83.3911 15.7189 83.2116 15.7189H80.2794V29.3464C80.2794 29.5289 80.2196 29.6506 80.1598 29.7723C80.0401 29.8939 79.9204 29.8939 79.7409 29.8939H75.3726C75.193 29.8939 75.0734 29.8331 74.9537 29.7723C74.834 29.6506 74.834 29.5289 74.834 29.3464V15.7189H71.9018C71.7223 15.7189 71.6026 15.6581 71.483 15.5972C71.3633 15.4755 71.3633 15.3539 71.3633 15.1714V11.7645C71.3633 11.582 71.4231 11.4603 71.483 11.3386C71.6026 11.2169 71.7223 11.2169 71.9018 11.2169H74.834V6.41082C74.834 6.2283 74.8938 6.10663 74.9537 5.98496C75.0734 5.86328 75.193 5.86328 75.3726 5.86328H79.7409C79.9204 5.86328 80.0401 5.92412 80.1598 5.98496C80.2794 6.10663 80.2794 6.2283 80.2794 6.41082V11.2169H83.2116Z" fill="white"/>
    <path fill-rule="evenodd" clip-rule="evenodd" d="M66.522 9.69572C65.6842 9.69572 64.9662 9.39154 64.4276 8.844C63.889 8.23563 63.5898 7.50559 63.5898 6.7147C63.5898 5.86299 63.889 5.13294 64.4276 4.58541C64.9662 3.97704 65.6842 3.67285 66.522 3.67285C67.3598 3.67285 68.0778 3.97704 68.6164 4.58541C69.155 5.19378 69.4542 5.86299 69.4542 6.7147C69.4542 7.56642 69.155 8.23563 68.6164 8.844C68.0778 9.45237 67.3598 9.69572 66.522 9.69572ZM63.7694 11.7642C63.7694 11.5817 63.8292 11.46 63.889 11.3383C64.0087 11.2166 64.1284 11.2166 64.3079 11.2166H68.6762C68.8558 11.2166 68.9754 11.2775 69.0951 11.3383C69.2148 11.46 69.2148 11.5817 69.2148 11.7642V29.4069C69.2148 29.5894 69.155 29.7111 69.0951 29.8328C68.9754 29.9545 68.8558 29.9545 68.6762 29.9545H64.3079C64.1284 29.9545 64.0087 29.8936 63.889 29.8328C63.7694 29.7111 63.7694 29.5894 63.7694 29.4069V11.7642Z" fill="white"/>
    <path fill-rule="evenodd" clip-rule="evenodd" d="M56.7082 15.9012C58.0845 16.2662 59.2215 17.0571 60.2387 18.213C61.256 19.3689 61.7347 20.7682 61.7347 22.4108C61.7347 24.9659 60.9568 26.8519 59.3411 28.1294C57.7853 29.407 55.3917 30.0154 52.1603 30.0154H43.1245C42.945 30.0154 42.8253 29.9546 42.7056 29.8937C42.5859 29.772 42.5859 29.6504 42.5859 29.4679V4.15964C42.5859 3.97713 42.6458 3.85545 42.7056 3.73378C42.8253 3.61211 42.945 3.55127 43.1245 3.55127H52.1005C53.7162 3.55127 55.0925 3.85545 56.2295 4.46383C57.4263 5.0722 58.264 5.86308 58.8624 6.89731C59.4608 7.93154 59.76 9.08744 59.76 10.365C59.76 11.7034 59.4608 12.7985 58.8624 13.7719C58.264 14.7453 57.5459 15.4145 56.6483 15.8404L56.7082 15.9012ZM54.4941 11.1559C54.4941 9.57414 53.5367 8.72242 51.6218 8.72242H48.2707V13.7719H51.6218C52.5194 13.7719 53.2375 13.5285 53.776 13.1027C54.3146 12.6768 54.5539 12.0076 54.5539 11.0951L54.4941 11.1559ZM52.3399 24.8442C53.4768 24.8442 54.3744 24.6009 55.0327 24.0534C55.6909 23.5058 56.0499 22.7149 56.0499 21.6807C56.0499 20.6465 55.6909 19.9164 55.0327 19.4297C54.3744 18.943 53.4768 18.6997 52.3399 18.6997H48.2109V24.9051H52.3399V24.8442Z" fill="white"/>
    <path fill-rule="evenodd" clip-rule="evenodd" d="M11.235 1.23961C11.7137 0.752916 12.372 0.44873 13.0302 0.44873H17.4584C17.9969 0.44873 18.2961 1.11794 17.9371 1.5438L9.20045 11.0344H14.0475L18.9544 16.3272H9.20045L18.9544 26.9129H13.09C12.4318 26.9129 11.7736 26.6087 11.2948 26.122L1.42125 15.4146C0.523647 14.4413 0.523647 12.9812 1.42125 12.0078L11.2948 1.30045L11.235 1.23961Z" fill="white"/>
    <path fill-rule="evenodd" clip-rule="evenodd" d="M24.8131 36.6469C24.3344 37.1336 23.6762 37.4378 23.0179 37.4378H18.5898C18.0512 37.4378 17.752 36.7685 18.111 36.3427L26.8477 26.8521H22.0006L17.0938 21.5593H26.8477L17.0992 10.9736H22.9635C23.6218 10.9736 24.28 11.2778 24.7587 11.7645L34.6323 22.4718C35.5299 23.4452 35.5299 24.9053 34.6323 25.8787L24.7533 36.586L24.8131 36.6469Z" fill="white"/>
  </g>
  <defs>
    <clipPath id="clip0_238_1369">
      <rect width="136" height="37" fill="white" transform="translate(0.703125 0.443359)"/>
    </clipPath>
  </defs>
</svg>