<svg xmlns="http://www.w3.org/2000/svg" width="163" height="38" viewBox="0 0 163 38" fill="none">
  <g clip-path="url(#clip0_238_1396)">
    <path fill-rule="evenodd" clip-rule="evenodd" d="M134.82 11.4462H139.421V6.86155H134.82V11.4462ZM110.364 19.0851C111.246 16.7605 113.494 15.1074 116.131 15.1074C118.769 15.1074 121.024 16.7605 121.899 19.0851H110.364ZM116.131 10.8392C110.364 10.8392 105.686 15.5013 105.686 21.2483C105.686 26.9952 110.364 31.6574 116.131 31.6574C120.091 31.6574 123.532 29.4619 125.301 26.2333L121.445 24.3671C120.369 26.1816 118.393 27.3956 116.131 27.3956C113.274 27.3956 110.87 25.4584 110.17 22.8239H122.093V22.8303H126.461C126.538 22.3137 126.577 21.7842 126.577 21.2483C126.577 15.5013 121.905 10.8392 116.131 10.8392ZM127.795 31.102H132.396V26.5174H127.795V31.102ZM134.82 31.102H139.421V13.4609H134.82V31.102ZM152.257 27.3956C148.849 27.3956 146.089 24.6448 146.089 21.2483C146.089 17.8518 148.849 15.101 152.257 15.101C155.666 15.101 158.426 17.8518 158.426 21.2483C158.426 24.6448 155.666 27.3956 152.257 27.3956ZM152.257 10.8392C146.49 10.8392 141.812 15.5013 141.812 21.2483C141.812 26.9952 146.49 31.6574 152.257 31.6574C158.025 31.6574 162.703 26.9952 162.703 21.2483C162.703 15.5013 158.025 10.8392 152.257 10.8392ZM56.0683 17.4127V22.1523H62.503C62.166 23.5083 61.5051 24.7223 60.5525 25.6909C59.1139 27.1567 57.1246 27.9574 54.9473 27.9574C50.4243 27.9574 46.7436 24.2896 46.7436 19.776C46.7436 15.2689 50.4243 11.5947 54.9473 11.5947C57.3708 11.5947 59.5999 12.6279 61.1422 14.4101L64.8228 11.4074C62.3799 8.55335 58.7575 6.84863 54.9473 6.84863C47.7999 6.84863 41.9873 12.6472 41.9873 19.7696C41.9873 26.8919 47.7999 32.6905 54.9473 32.6905C58.4206 32.6905 61.6152 31.4443 63.9545 29.0615C65.9179 27.0598 67.2204 24.2703 67.4667 21.4807C67.5898 20.1183 67.6027 18.7622 67.525 17.3998L56.0683 17.4127ZM79.5 27.3956C76.098 27.3956 73.3311 24.6448 73.3311 21.2483C73.3311 17.8518 76.0915 15.101 79.5 15.101C82.9085 15.101 85.669 17.8518 85.669 21.2483C85.669 24.6448 82.9085 27.3956 79.5 27.3956ZM85.669 12.8668C83.9388 11.6012 81.8069 10.8586 79.5 10.8586C73.7328 10.8586 69.0607 15.5207 69.0607 21.2677C69.0607 27.0146 73.7393 31.6767 79.5 31.6767C81.8069 31.6767 83.9388 30.9277 85.669 29.6685V31.1085H89.9458V11.4268H85.669V12.8668ZM99.1215 6.86155H94.8447V11.4462H92.2851V15.4691H94.8447V25.9944C94.8447 27.0792 94.9807 27.9961 95.2529 28.7129C95.5186 29.4232 95.9333 29.9785 96.4193 30.4111C96.9118 30.8502 97.4885 31.1924 98.1754 31.3926C98.8752 31.5863 99.6399 31.6638 100.456 31.6638C101.299 31.6638 102.05 31.5799 102.685 31.4055C103.282 31.2441 103.852 31.0181 104.377 30.734V27.4924C103.534 27.854 102.744 27.9896 101.843 28.0284C100.891 28.0736 100.333 27.8024 99.8667 27.3568C99.3742 26.8919 99.115 26.2849 99.115 25.2711V15.4691H104.377V11.4462H99.115V6.86155H99.1215Z" fill="white"/>
    <path fill-rule="evenodd" clip-rule="evenodd" d="M19.2489 29.1068C13.6178 29.1068 9.04937 24.5545 9.04937 18.9431C9.04937 13.3318 13.6178 8.77944 19.2489 8.77944V0.456055C9.00401 0.456055 0.703125 8.73424 0.703125 18.9431C0.703125 29.152 9.00401 37.4238 19.2489 37.4238C29.4873 37.4238 37.7946 29.1456 37.7946 18.9431H29.4484C29.4484 24.5609 24.88 29.1068 19.2489 29.1068Z" fill="white"/>
    <path fill-rule="evenodd" clip-rule="evenodd" d="M19.249 18.943H29.4485V8.7793H19.249V18.943Z" fill="white"/>
  </g>
  <defs>
    <clipPath id="clip0_238_1396">
      <rect width="162" height="37" fill="white" transform="translate(0.703125 0.443359)"/>
    </clipPath>
  </defs>
</svg>