<svg xmlns="http://www.w3.org/2000/svg" width="162" height="38" viewBox="0 0 162 38" fill="none">
  <g clip-path="url(#clip0_238_1381)">
    <path d="M126.075 18.9267C126.075 17.9831 126.075 17.0954 126.044 16.2756C126.024 15.5023 125.947 14.7314 125.815 13.9691C125.692 13.2729 125.475 12.5969 125.169 11.9595C124.846 11.3024 124.414 10.7045 123.892 10.191C123.152 9.43253 122.271 8.8255 121.299 8.40379C120.247 7.97772 119.121 7.7665 117.986 7.78259C116.847 7.76787 115.716 7.979 114.659 8.40379C113.681 8.81974 112.795 9.42414 112.051 10.1825C111.53 10.6957 111.1 11.2937 110.779 11.951C110.476 12.5885 110.262 13.2647 110.143 13.9606C110.014 14.7231 109.94 15.494 109.922 16.2671C109.902 17.0869 109.892 17.9746 109.897 18.9182C109.902 19.8619 109.897 20.7428 109.922 21.5676C109.94 22.3408 110.014 23.1116 110.143 23.8742C110.262 24.5701 110.476 25.2463 110.779 25.8837C111.101 26.5403 111.531 27.1381 112.051 27.6523C112.794 28.4112 113.681 29.0147 114.659 29.4276C115.716 29.8552 116.846 30.0675 117.986 30.0522C119.121 30.0689 120.248 29.8565 121.299 29.4276C122.271 29.0115 123.153 28.4083 123.892 27.6523C124.413 27.1378 124.844 26.5401 125.169 25.8837C125.475 25.2464 125.692 24.5703 125.815 23.8742C125.946 23.114 126.021 22.3454 126.041 21.5744C126.066 20.7496 126.078 19.867 126.072 18.925L126.075 18.9267ZM121.798 18.9267C121.798 19.9722 121.783 20.8429 121.747 21.5354C121.727 22.1042 121.67 22.6711 121.577 23.2326C121.514 23.6067 121.399 23.9705 121.238 24.3138C121.107 24.5905 120.935 24.8462 120.729 25.0725C120.41 25.4372 120.015 25.727 119.571 25.9211C119.072 26.1347 118.534 26.2433 117.991 26.2402C117.445 26.2426 116.905 26.134 116.402 25.9211C115.948 25.7306 115.542 25.4406 115.214 25.0725C115.007 24.8472 114.835 24.5913 114.705 24.3138C114.548 23.9701 114.439 23.6062 114.383 23.2326C114.292 22.6708 114.235 22.104 114.213 21.5354C114.182 20.8429 114.167 19.9734 114.167 18.9267C114.167 17.8812 114.182 17.0088 114.213 16.3164C114.235 15.7477 114.292 15.1809 114.383 14.6191C114.439 14.2455 114.548 13.8816 114.705 13.538C114.835 13.2607 115.007 13.0048 115.214 12.7793C115.542 12.4117 115.948 12.1218 116.402 11.9307C116.904 11.7153 117.445 11.6067 117.991 11.6116C118.534 11.6059 119.073 11.7147 119.571 11.9307C120.014 12.1254 120.41 12.4151 120.729 12.7793C120.935 13.0058 121.106 13.2615 121.238 13.538C121.399 13.8813 121.514 14.245 121.577 14.6191C121.67 15.1806 121.727 15.7476 121.747 16.3164C121.784 17.0071 121.798 17.8795 121.798 18.9267Z" fill="white"/>
    <path d="M160.156 8.34921C160.154 8.14282 159.987 7.97596 159.781 7.97412H156.252C156.045 7.97505 155.878 8.14244 155.877 8.34921V21.3841L147.272 8.07935C147.214 7.9894 147.163 7.97412 147.036 7.97412H143.764C143.558 7.97686 143.391 8.1432 143.389 8.34921V29.5003C143.391 29.706 143.558 29.8719 143.764 29.8737H147.291C147.496 29.8728 147.663 29.7061 147.664 29.5003V16.4315L156.271 29.7668C156.33 29.8567 156.378 29.872 156.507 29.872H159.777C159.983 29.8711 160.151 29.7047 160.152 29.4986L160.156 8.34921Z" fill="white"/>
    <path d="M136.503 8.34921C136.502 8.14244 136.335 7.97505 136.128 7.97412H132.603C132.396 7.97505 132.228 8.14244 132.228 8.34921V29.4986C132.228 29.7054 132.396 29.8728 132.603 29.8737H136.128C136.335 29.8728 136.502 29.7054 136.503 29.4986V8.34921Z" fill="white"/>
    <path d="M94.3021 18.9267C94.3021 17.8744 94.3139 16.9987 94.3445 16.3011C94.3652 15.7323 94.4219 15.1654 94.5142 14.6038C94.8401 12.7199 96.2827 11.6082 98.1243 11.6082C99.3259 11.6184 100.416 12.0631 101.111 13.0746C101.427 13.5469 101.656 14.0708 101.79 14.6225C101.801 14.6806 101.854 14.7212 101.913 14.7159H106.062C106.122 14.7159 106.144 14.6751 106.134 14.6174C105.68 12.0495 104.311 9.74292 101.89 8.60068C100.701 8.04994 99.4026 7.77438 98.092 7.79448C95.7555 7.79448 93.7872 8.59445 92.1873 10.1944C91.2738 11.0846 90.6503 12.2299 90.3984 13.4803C90.154 14.7113 90.0306 16.5263 90.0284 18.925C90.0261 21.3238 90.1495 23.1382 90.3984 24.3681C90.6482 25.6201 91.2699 26.7676 92.1822 27.6608C93.781 29.2596 95.7492 30.059 98.0869 30.059C99.3973 30.0788 100.695 29.8039 101.885 29.2545C104.306 28.1122 105.675 25.8057 106.128 23.2377C106.139 23.1783 106.117 23.1393 106.057 23.1393H101.906C101.847 23.1331 101.793 23.1741 101.784 23.2326C101.649 23.7837 101.419 24.307 101.105 24.7788C100.409 25.7972 99.3191 26.2368 98.1175 26.2453C96.2759 26.2453 94.8333 25.1353 94.5074 23.2513C94.4152 22.6897 94.3585 22.1228 94.3377 21.5541C94.3139 20.8531 94.3021 19.9756 94.3021 18.9267Z" fill="white"/>
    <path d="M50.4726 8.34921C50.4717 8.14244 50.3043 7.97505 50.0975 7.97412H46.5724C46.3656 7.97505 46.1982 8.14244 46.1973 8.34921V29.5003C46.1991 29.7064 46.3662 29.8728 46.5724 29.8739H50.0975C50.3037 29.8728 50.4708 29.7064 50.4726 29.5003V23.2918L53.3019 19.9092L59.1133 29.7617C59.1581 29.8343 59.2385 29.8772 59.3238 29.8739H63.6076C63.8045 29.8739 63.8402 29.7515 63.7417 29.5835L56.133 16.6844L63.1137 8.31018C63.2546 8.14045 63.1952 7.97921 62.9746 7.97921H58.2919C58.2349 7.97586 58.18 8.00137 58.1459 8.0471L50.4726 17.2496V8.34921Z" fill="white"/>
    <path d="M76.1562 26.245C74.1721 26.245 72.373 24.4086 72.373 22.2157V8.34921C72.3721 8.14244 72.2047 7.97505 71.9979 7.97412H68.4727C68.266 7.97505 68.0986 8.14244 68.0977 8.34921V22.1614C68.0977 26.9901 71.7094 30.0587 76.1562 30.0587C80.603 30.0587 84.2147 26.9901 84.2147 22.1614V8.34921C84.2129 8.14282 84.046 7.97596 83.8396 7.97412H80.3127C80.1066 7.97598 79.9403 8.1431 79.9394 8.34921V22.2157C79.9394 24.4069 78.1386 26.245 76.1562 26.245Z" fill="white"/>
    <path fill-rule="evenodd" clip-rule="evenodd" d="M10.7622 18.9266L21.706 29.8722L28.6138 22.9644C29.849 21.8522 31.7388 21.9016 32.9141 23.077C34.0894 24.2523 34.1389 26.142 33.0267 27.3772L23.9108 36.4948C22.6863 37.6991 20.7224 37.6991 19.4979 36.4948L6.34595 23.3395V31.1587C6.34595 32.8844 4.947 34.2833 3.22131 34.2833C1.49563 34.2833 0.0966797 32.8844 0.0966797 31.1587V6.68436C0.0966797 4.95867 1.49563 3.55973 3.22131 3.55973C4.947 3.55973 6.34595 4.95867 6.34595 6.68436V14.5036L19.4962 1.35161C20.7203 0.146469 22.685 0.146469 23.9091 1.35161L33.0318 10.4675C34.144 11.7027 34.0945 13.5925 32.9192 14.7678C31.7439 15.9431 29.8541 15.9926 28.6189 14.8804L21.7111 7.97257L10.7622 18.9266ZM21.7111 15.7986C20.4458 15.7979 19.3047 16.5596 18.82 17.7284C18.3353 18.8972 18.6025 20.2429 19.497 21.1379C20.3915 22.0328 21.737 22.3008 22.9061 21.8167C24.0752 21.3326 24.8375 20.1919 24.8375 18.9266C24.8379 18.097 24.5088 17.3012 23.9225 16.7143C23.3362 16.1273 22.5407 15.7973 21.7111 15.7969V15.7986Z" fill="white"/>
  </g>
  <defs>
    <clipPath id="clip0_238_1381">
      <rect width="161.214" height="37" fill="white" transform="translate(0.0957031 0.443359)"/>
    </clipPath>
  </defs>
</svg>