<svg xmlns="http://www.w3.org/2000/svg" width="180" height="19" viewBox="0 0 180 19" fill="none">
  <g clip-path="url(#clip0_238_1402)">
    <path d="M30.9217 13.6577L24.1589 2.66291C22.6759 0.372614 19.0653 0.345748 17.6325 2.75694L10.5401 14.1883C9.21479 16.2838 10.8553 18.9166 13.506 18.9166H27.7266C30.3987 18.9166 32.4047 16.2166 30.9217 13.6577Z" fill="white"/>
    <path d="M21.1719 14.5104L20.7564 13.8254C20.3695 13.194 19.5098 11.8239 19.5098 11.8239L13.7858 2.51492C12.31 0.446266 8.79966 0.271639 7.31672 2.88433L0.66136 13.6776C-0.714128 15.9478 0.919264 18.8963 3.91382 18.9164H18.0555H24.0876H27.6768C24.0088 18.9433 22.8339 17.1634 21.1719 14.5104Z" fill="white"/>
    <path d="M21.1718 14.5106L20.7563 13.8256C20.3695 13.1942 19.5098 11.8241 19.5098 11.8241L15.7773 5.75244L10.5118 14.2151C9.18647 16.3106 10.827 18.9435 13.4777 18.9435H18.0268H24.0589H27.6696C23.9801 18.9166 22.8339 17.1636 21.1718 14.5106Z" fill="url(#paint0_linear_238_1402)"/>
    <path d="M177.927 18.0434C176.803 18.0434 175.922 17.8151 175.248 17.4188C174.546 16.9889 174.181 16.3643 174.181 15.5046V3.05908H175.943C176.581 3.05908 177.132 3.54266 177.132 4.17401V15.1352C177.132 15.1621 177.132 15.6792 177.591 16.1024C177.863 16.3576 178.2 16.4986 178.658 16.4986H178.995C179.117 16.4986 179.238 16.6128 179.238 16.727V18.0703L177.927 18.0434Z" fill="white"/>
    <path d="M139.872 18.0434C138.045 18.0434 136.555 17.5867 135.43 16.6733C134.85 16.2165 134.456 15.6994 134.212 15.1352C133.968 14.5643 133.847 13.7382 133.847 12.6233C133.847 11.5419 133.968 10.6822 134.212 10.1113C134.427 9.56728 134.821 9.0837 135.401 8.62699C136.526 7.71355 138.023 7.25684 139.843 7.25684C141.67 7.25684 143.16 7.71355 144.285 8.62699C144.865 9.0837 145.259 9.59415 145.474 10.1113C145.717 10.7091 145.839 11.5419 145.839 12.6233C145.839 13.7382 145.717 14.5643 145.474 15.1352C145.23 15.7061 144.836 16.2165 144.256 16.6733C143.189 17.5867 141.698 18.0434 139.872 18.0434ZM139.872 8.82848C137.866 8.82848 136.856 10.1113 136.856 12.6501C136.856 15.2225 137.859 16.5053 139.872 16.5053C141.885 16.5053 142.888 15.2225 142.888 12.6837C142.888 10.1113 141.849 8.82848 139.872 8.82848Z" fill="white"/>
    <path d="M152.481 18.0434C150.898 18.0434 149.436 17.6471 148.19 16.8748C148.068 16.7606 147.824 16.6195 147.516 16.4449C147.459 16.418 147.395 16.3307 147.395 16.2434V3.05908H149.193C149.83 3.05908 150.382 3.57625 150.382 4.17401V8.02923L150.934 7.74042C151.571 7.42475 152.424 7.28371 153.52 7.28371C155.44 7.28371 156.901 7.82774 157.875 8.88222C158.728 9.82251 159.158 11.0785 159.158 12.6233C159.158 14.168 158.671 15.424 157.696 16.3307C156.557 17.4725 154.795 18.0434 152.481 18.0434ZM152.782 8.82849C152.108 8.82849 151.349 9.05684 150.497 9.54042L150.375 9.60087V15.7934L150.497 15.8807C151.163 16.277 151.958 16.4785 152.782 16.4785C153.878 16.4785 154.73 16.0486 155.311 15.1956C155.798 14.5106 156.07 13.624 156.07 12.6233C156.07 10.1113 154.945 8.82849 152.782 8.82849Z" fill="white"/>
    <path d="M166.178 18.0165C162.833 18.0165 160.727 15.9613 160.727 12.6233C160.727 9.31206 162.797 7.25684 166.114 7.25684C167.389 7.25684 168.485 7.57251 169.374 8.17027L169.553 8.28445V7.45833H171.895C172.046 7.45833 172.139 7.57251 172.139 7.68669V17.8218H169.524V16.9083L169.345 17.0494C168.614 17.674 167.454 18.0165 166.178 18.0165ZM166.787 9.0837C164.688 9.0837 163.442 10.5949 163.442 12.6233C163.442 14.6516 164.688 16.2165 166.787 16.2165C167.454 16.2165 168.614 16.1561 169.531 15.3031L169.56 15.2762V10.0844L169.531 10.0576C168.886 9.36579 167.941 9.0837 166.787 9.0837Z" fill="white"/>
    <path d="M58.0098 17.9024V3.03223H71.1915V3.97253C71.1915 4.71805 70.5539 5.31581 69.7587 5.31581H61.298V9.31208H69.7587V11.5957H61.298V15.5919H69.7587C70.5468 15.5919 71.1915 16.1897 71.1915 16.9352V17.8755L58.0098 17.9024Z" fill="white"/>
    <path d="M90.1254 3.03223H87.0233C86.4431 3.03223 85.9273 3.26058 85.5619 3.69044L81.8151 8.11655L78.0683 3.72402C77.703 3.29417 77.1872 3.06581 76.6069 3.06581H73.5049L79.8092 10.4875L73.5049 17.9091H76.6069C77.1872 17.9091 77.703 17.6807 78.0683 17.2509L81.8151 12.8583L85.5905 17.2845C85.9559 17.6807 86.4717 17.9427 87.052 17.9427H90.154L83.8497 10.521L90.1254 3.03223Z" fill="white"/>
    <path d="M47.6858 16.3306L52.0057 9.25152V17.8687H55.294V3.00525H53.2522C52.6146 3.00525 52.0057 3.32092 51.6977 3.86495L46.5252 12.7105L41.3528 3.85824C41.0448 3.31421 40.4358 2.99854 39.7982 2.99854H37.7637V17.8687H41.0519V9.25152L45.3718 16.3306H47.6858Z" fill="white"/>
    <path d="M98.7155 18.0701C94.152 18.1238 90.4339 14.7589 90.4053 10.4806C90.4053 8.13654 91.1647 6.19549 92.5975 4.85892C94.0303 3.54251 96.1006 2.83057 98.5651 2.83057C101.459 2.83057 103.737 3.77087 105.385 5.59773L104.354 6.42385C103.716 6.9343 102.77 6.96788 102.068 6.4843C101.151 5.82609 99.9979 5.51042 98.6869 5.51042C95.4631 5.51042 93.5431 7.33728 93.5431 10.4201C93.5431 13.5298 95.5204 15.444 98.6869 15.444C100.027 15.444 101.151 15.1015 102.068 14.4768C102.742 13.9933 103.68 14.0201 104.354 14.5373L105.385 15.3634C103.737 17.1567 101.545 18.0701 98.7155 18.0701Z" fill="white"/>
    <path d="M118.96 18.0702C113.845 18.0702 110.679 15.162 110.679 10.4807C110.679 5.79932 113.845 2.89111 118.896 2.89111C121.332 2.89111 123.373 3.54932 124.957 4.89261L124.197 5.69186C123.86 6.0344 123.373 6.23589 122.886 6.23589C122.614 6.23589 122.335 6.17544 122.098 6.06126C121.152 5.60455 120.056 5.37619 118.903 5.37619C115.615 5.37619 113.573 7.3441 113.573 10.5142C113.573 13.7113 115.701 15.6792 119.111 15.6792C120.758 15.6792 122.034 15.3904 122.979 14.7657L123.037 14.7389V11.6829H119.412V10.6822C119.412 9.94335 120.049 9.33887 120.844 9.33887H125.322C125.444 9.33887 125.565 9.45305 125.565 9.56723V16.1628C124.011 17.4187 121.79 18.0702 118.96 18.0702Z" fill="white"/>
    <path d="M131.44 18.0434C130.315 18.0434 129.427 17.8151 128.761 17.4188C128.059 16.9889 127.693 16.3643 127.693 15.5046V3.05908H129.456C130.093 3.05908 130.645 3.54266 130.645 4.17401V15.1352C130.645 15.1621 130.645 15.6792 131.103 16.1024C131.376 16.3576 131.712 16.4986 132.171 16.4986H132.508C132.629 16.4986 132.751 16.6128 132.751 16.727V18.0703L131.44 18.0434Z" fill="white"/>
  </g>
  <defs>
    <linearGradient id="paint0_linear_238_1402" x1="8.96208" y1="10.3879" x2="24.0883" y2="16.7222" gradientUnits="userSpaceOnUse">
      <stop stop-color="white" stop-opacity="0"/>
      <stop offset="1" stop-color="white"/>
    </linearGradient>
    <clipPath id="clip0_238_1402">
      <rect width="179.1" height="18" fill="white" transform="translate(0.15332 0.943359)"/>
    </clipPath>
  </defs>
</svg>