<svg width="29" height="41" viewBox="0 0 29 41" fill="none" xmlns="http://www.w3.org/2000/svg">
<g clip-path="url(#clip0_229_7544)">
<mask id="mask0_229_7544" style="mask-type:luminance" maskUnits="userSpaceOnUse" x="0" y="0" width="11" height="41">
<path d="M10.2031 0.943359H6.20312C2.88942 0.943359 0.203125 3.62965 0.203125 6.94336V34.9434C0.203125 38.2571 2.88942 40.9434 6.20312 40.9434H10.2031V0.943359Z" fill="white"/>
</mask>
<g mask="url(#mask0_229_7544)">
<path d="M10.2031 -0.0566406H6.20312C2.33714 -0.0566406 -0.796875 3.07737 -0.796875 6.94336H1.20312C1.20312 4.18194 3.4417 1.94336 6.20312 1.94336H10.2031V-0.0566406ZM-0.796875 34.9434C-0.796875 38.8094 2.33714 41.9434 6.20312 41.9434H10.2031V39.9434H6.20312C3.4417 39.9434 1.20312 37.7048 1.20312 34.9434H-0.796875ZM6.20312 -0.0566406C2.33714 -0.0566406 -0.796875 3.07737 -0.796875 6.94336V34.9434C-0.796875 38.8094 2.33714 41.9434 6.20312 41.9434V39.9434C3.4417 39.9434 1.20312 37.7048 1.20312 34.9434V6.94336C1.20312 4.18194 3.4417 1.94336 6.20312 1.94336V-0.0566406Z" fill="#242E2C"/>
</g>
<path d="M18.2031 1.44336H28.2031" stroke="url(#paint0_linear_229_7544)"/>
<path d="M28.2031 40.4434L18.2031 40.4434" stroke="url(#paint1_linear_229_7544)"/>
</g>
<defs>
<linearGradient id="paint0_linear_229_7544" x1="-nan" y1="-nan" x2="-nan" y2="-nan" gradientUnits="userSpaceOnUse">
<stop stop-color="white" stop-opacity="0"/>
<stop offset="1" stop-color="white" stop-opacity="0.2"/>
</linearGradient>
<linearGradient id="paint1_linear_229_7544" x1="-nan" y1="-nan" x2="-nan" y2="-nan" gradientUnits="userSpaceOnUse">
<stop stop-color="white" stop-opacity="0"/>
<stop offset="1" stop-color="white" stop-opacity="0.2"/>
</linearGradient>
<clipPath id="clip0_229_7544">
<rect width="28" height="40" fill="white" transform="translate(0.203125 0.943359)"/>
</clipPath>
</defs>
</svg>
