<svg width="27" height="31" viewBox="0 0 27 31" fill="none" xmlns="http://www.w3.org/2000/svg">
<g clip-path="url(#clip0_229_8414)">
<mask id="mask0_229_8414" style="mask-type:luminance" maskUnits="userSpaceOnUse" x="0" y="0" width="11" height="31">
<path d="M10.2031 0.943604H6.20312C2.88942 0.943604 0.203125 3.62989 0.203125 6.9436V24.9436C0.203125 28.2573 2.88942 30.9436 6.20312 30.9436H10.2031V0.943604Z" fill="white"/>
</mask>
<g mask="url(#mask0_229_8414)">
<path d="M10.2031 -0.0563965H6.20312C2.33714 -0.0563965 -0.796875 3.07761 -0.796875 6.9436H1.20312C1.20312 4.18218 3.4417 1.9436 6.20312 1.9436H10.2031V-0.0563965ZM-0.796875 24.9436C-0.796875 28.8096 2.33714 31.9436 6.20312 31.9436H10.2031V29.9436H6.20312C3.4417 29.9436 1.20312 27.705 1.20312 24.9436H-0.796875ZM6.20312 -0.0563965C2.33714 -0.0563965 -0.796875 3.07761 -0.796875 6.9436V24.9436C-0.796875 28.8096 2.33714 31.9436 6.20312 31.9436V29.9436C3.4417 29.9436 1.20312 27.705 1.20312 24.9436V6.9436C1.20312 4.18218 3.4417 1.9436 6.20312 1.9436V-0.0563965Z" fill="#242E2C" fill-opacity="0.2"/>
</g>
<path d="M16.2031 1.4436H26.2031" stroke="url(#paint0_linear_229_8414)"/>
<path d="M26.2031 30.4436L16.2031 30.4436" stroke="url(#paint1_linear_229_8414)"/>
</g>
<defs>
<linearGradient id="paint0_linear_229_8414" x1="-nan" y1="-nan" x2="-nan" y2="-nan" gradientUnits="userSpaceOnUse">
<stop stop-color="white" stop-opacity="0"/>
<stop offset="1" stop-color="white" stop-opacity="0.2"/>
</linearGradient>
<linearGradient id="paint1_linear_229_8414" x1="-nan" y1="-nan" x2="-nan" y2="-nan" gradientUnits="userSpaceOnUse">
<stop stop-color="white" stop-opacity="0"/>
<stop offset="1" stop-color="white" stop-opacity="0.2"/>
</linearGradient>
<clipPath id="clip0_229_8414">
<rect width="26" height="30" fill="white" transform="translate(0.203125 0.943604)"/>
</clipPath>
</defs>
</svg>
