<svg xmlns="http://www.w3.org/2000/svg" width="27" height="31" viewBox="0 0 27 31" fill="none">
  <g clip-path="url(#clip0_229_8423)">
    <mask id="mask0_229_8423" style="mask-type:luminance" maskUnits="userSpaceOnUse" x="16" y="0" width="11" height="31">
      <path d="M16.4434 0.943604H20.4434C23.7571 0.943604 26.4434 3.62989 26.4434 6.9436V24.9436C26.4434 28.2573 23.7571 30.9436 20.4434 30.9436H16.4434V0.943604Z" fill="white"/>
    </mask>
    <g mask="url(#mask0_229_8423)">
      <path d="M16.4434 -0.0563965H20.4434C24.3094 -0.0563965 27.4434 3.07761 27.4434 6.9436H25.4434C25.4434 4.18218 23.2048 1.9436 20.4434 1.9436H16.4434V-0.0563965ZM27.4434 24.9436C27.4434 28.8096 24.3094 31.9436 20.4434 31.9436H16.4434V29.9436H20.4434C23.2048 29.9436 25.4434 27.705 25.4434 24.9436H27.4434ZM20.4434 -0.0563965C24.3094 -0.0563965 27.4434 3.07761 27.4434 6.9436V24.9436C27.4434 28.8096 24.3094 31.9436 20.4434 31.9436V29.9436C23.2048 29.9436 25.4434 27.705 25.4434 24.9436V6.9436C25.4434 4.18218 23.2048 1.9436 20.4434 1.9436V-0.0563965Z" fill="#242E2C" fill-opacity="0.2"/>
    </g>
    <path d="M10.4434 1.4436H0.443359" stroke="url(#paint0_linear_229_8423)"/>
    <path d="M0.443359 30.4436H10.4434" stroke="url(#paint1_linear_229_8423)"/>
  </g>
  <defs>
    <linearGradient id="paint0_linear_229_8423" x1="-nan" y1="-nan" x2="-nan" y2="-nan" gradientUnits="userSpaceOnUse">
      <stop stop-color="white" stop-opacity="0"/>
      <stop offset="1" stop-color="white" stop-opacity="0.2"/>
    </linearGradient>
    <linearGradient id="paint1_linear_229_8423" x1="-nan" y1="-nan" x2="-nan" y2="-nan" gradientUnits="userSpaceOnUse">
      <stop stop-color="white" stop-opacity="0"/>
      <stop offset="1" stop-color="white" stop-opacity="0.2"/>
    </linearGradient>
    <clipPath id="clip0_229_8423">
      <rect width="26" height="30" fill="white" transform="translate(0.443359 0.943604)"/>
    </clipPath>
  </defs>
</svg>