<svg xmlns="http://www.w3.org/2000/svg" width="139" height="51" viewBox="0 0 139 51" fill="none">
  <path fill-rule="evenodd" clip-rule="evenodd" d="M0.203125 34.9857L5.09523 27.104C9.85145 19.3581 19.4998 3.59466 29.1481 1.01271C38.7964 -1.56924 48.5806 8.89444 58.229 17.9992C67.8773 27.104 77.5256 34.9857 87.174 34.9857C96.8223 34.9857 106.471 27.104 116.119 21.9401C125.767 16.6403 135.551 14.0584 145.2 11.4764C154.848 8.89444 164.496 6.3125 174.145 3.59466C183.793 1.01271 193.441 -1.56924 203.09 3.59466C212.738 8.89444 222.522 21.9401 232.171 23.1631C241.819 24.522 251.467 14.0584 256.223 8.89444L261.116 3.59466V50.6133H256.223C251.467 50.6133 241.819 50.6133 232.171 50.6133C222.522 50.6133 212.738 50.6133 203.09 50.6133C193.441 50.6133 183.793 50.6133 174.145 50.6133C164.496 50.6133 154.848 50.6133 145.2 50.6133C135.551 50.6133 125.767 50.6133 116.119 50.6133C106.471 50.6133 96.8223 50.6133 87.174 50.6133C77.5256 50.6133 67.8773 50.6133 58.229 50.6133C48.5806 50.6133 38.7964 50.6133 29.1481 50.6133C19.4998 50.6133 9.85145 50.6133 5.09523 50.6133H0.203125V34.9857Z" fill="url(#paint0_linear_229_7633)"/>
  <defs>
    <linearGradient id="paint0_linear_229_7633" x1="130.659" y1="0.613281" x2="130.659" y2="50.6133" gradientUnits="userSpaceOnUse">
      <stop stop-color="#BBF49C" stop-opacity="0.6"/>
      <stop offset="1" stop-color="#BBF49C" stop-opacity="0.02"/>
    </linearGradient>
  </defs>
</svg>