<svg width="33" height="34" viewBox="0 0 33 34" fill="none" xmlns="http://www.w3.org/2000/svg">
<path fill-rule="evenodd" clip-rule="evenodd" d="M4.64758 4.66138V9.59685L14.3359 9.59685C13.444 10.271 12.5947 11.0093 11.7951 11.8089C7.21863 16.3854 4.64758 22.5924 4.64758 29.0646H9.58306C9.58306 23.9014 11.6341 18.9497 15.285 15.2988C18.9359 11.6479 23.8876 9.59685 29.0508 9.59685V4.66138L4.64758 4.66138ZM24.1153 16.8637V29.3388H29.0508V15.9033V12.613V10.9678C24.2512 10.9678 19.6482 12.8744 16.2544 16.2682C12.8606 19.662 10.954 24.265 10.954 29.0646H15.8895C15.8895 25.574 17.2761 22.2264 19.7443 19.7581C21.0047 18.4978 22.4944 17.5194 24.1153 16.8637Z" fill="#1E4841"/>
</svg>
