<svg width="137" height="34" viewBox="0 0 137 34" fill="none" xmlns="http://www.w3.org/2000/svg">
<path fill-rule="evenodd" clip-rule="evenodd" d="M36.1294 18L42.4143 1.20833H45.7006L51.9615 18H49.011L47.4278 13.8501H40.5432L38.984 18H36.1294ZM41.3108 11.4992H46.6602L43.9735 4.18285L41.3108 11.4992ZM60.2082 5.71809V8.14089H59.0567C57.9853 8.14089 57.2097 8.49271 56.7299 9.19636C56.2501 9.88402 56.0103 10.7636 56.0103 11.8351V18H53.4196V5.71809H55.7224L56.0103 7.56517C56.3621 6.98946 56.8179 6.54168 57.3776 6.22184C57.9373 5.88601 58.6889 5.71809 59.6325 5.71809H60.2082ZM68.4256 5.57416C69.545 5.57416 70.5445 5.83004 71.4241 6.34178C72.3037 6.83753 72.9913 7.55718 73.4871 8.50071C73.9828 9.44424 74.2307 10.5637 74.2307 11.8591C74.2307 13.0904 73.9828 14.1859 73.4871 15.1454C72.9913 16.089 72.3037 16.8246 71.4241 17.3523C70.5445 17.8801 69.545 18.1439 68.4256 18.1439C67.514 18.1439 66.7224 17.976 66.0508 17.6402C65.3791 17.2884 64.8354 16.8166 64.4196 16.2249L64.1077 18H61.8529V1.20833H64.4436V7.54118C65.4191 6.22984 66.7464 5.57416 68.4256 5.57416ZM67.9938 15.961C69.0653 15.961 69.9288 15.5852 70.5845 14.8336C71.2562 14.066 71.592 13.0745 71.592 11.8591C71.592 10.6597 71.2562 9.68412 70.5845 8.93249C69.9288 8.16487 69.0653 7.78106 67.9938 7.78106C66.9223 7.78106 66.0588 8.15688 65.4031 8.9085C64.7474 9.66013 64.4196 10.6357 64.4196 11.8351C64.4196 13.0505 64.7474 14.042 65.4031 14.8096C66.0588 15.5772 66.9223 15.961 67.9938 15.961ZM77.602 0.800537C78.0497 0.800537 78.4255 0.952461 78.7294 1.25631C79.0332 1.54417 79.1852 1.91199 79.1852 2.35976C79.1852 2.80754 79.0332 3.18335 78.7294 3.4872C78.4255 3.77506 78.0497 3.91899 77.602 3.91899C77.1542 3.91899 76.7784 3.77506 76.4745 3.4872C76.1707 3.18335 76.0187 2.80754 76.0187 2.35976C76.0187 1.91199 76.1707 1.54417 76.4745 1.25631C76.7784 0.952461 77.1542 0.800537 77.602 0.800537ZM76.3066 5.71809H78.8973V18H76.3066V5.71809ZM82.2285 7.99696H80.0935V5.71809H82.2285V2.2878H84.8432V5.71809H87.7937V7.99696H84.8432V14.4018C84.8432 14.8816 84.9391 15.2254 85.131 15.4333C85.3229 15.6252 85.6508 15.7211 86.1145 15.7211H88.0816V18H85.5868C84.4194 18 83.5638 17.7281 83.0201 17.1844C82.4923 16.6407 82.2285 15.8011 82.2285 14.6657V7.99696ZM96.2605 5.71809V8.14089H95.1091C94.0377 8.14089 93.262 8.49271 92.7823 9.19636C92.3025 9.88402 92.0626 10.7636 92.0626 11.8351V18H89.4719V5.71809H91.7748L92.0626 7.56517C92.4145 6.98946 92.8702 6.54168 93.43 6.22184C93.9897 5.88601 94.7413 5.71809 95.6848 5.71809H96.2605ZM109.191 15.7451V18H107.824C107.024 18 106.448 17.8321 106.096 17.4963C105.745 17.1604 105.569 16.6727 105.569 16.033C104.641 17.4403 103.29 18.1439 101.515 18.1439C100.139 18.1439 99.0359 17.8241 98.2043 17.1844C97.3727 16.5447 96.957 15.6652 96.957 14.5457C96.957 13.2823 97.4047 12.3148 98.3003 11.6432C99.1958 10.9555 100.499 10.6117 102.21 10.6117H105.305V9.86803C105.305 9.18037 105.065 8.64463 104.585 8.26083C104.105 7.86102 103.442 7.66112 102.594 7.66112C101.843 7.66112 101.219 7.82904 100.723 8.16487C100.243 8.48471 99.9555 8.9165 99.8595 9.46023H97.3168C97.4447 8.22884 97.9884 7.27731 98.948 6.60565C99.9075 5.91799 101.163 5.57416 102.714 5.57416C104.361 5.57416 105.633 5.95797 106.528 6.72559C107.424 7.49321 107.872 8.59666 107.872 10.036V14.8816C107.872 15.4573 108.143 15.7451 108.687 15.7451H109.191ZM105.305 12.5307H102.09C101.291 12.5307 100.675 12.6906 100.243 13.0105C99.8115 13.3143 99.5956 13.7701 99.5956 14.3778C99.5956 14.9055 99.7955 15.3293 100.195 15.6492C100.611 15.969 101.171 16.1289 101.875 16.1289C102.946 16.1289 103.778 15.8411 104.369 15.2654C104.977 14.6896 105.289 13.922 105.305 12.9625V12.5307ZM122.524 5.71809V17.4963C122.524 19.2234 122.012 20.5587 120.989 21.5023C119.965 22.4618 118.382 22.9415 116.239 22.9415C114.576 22.9415 113.225 22.5657 112.185 21.8141C111.146 21.0785 110.57 20.031 110.458 18.6717H113.097C113.257 19.3593 113.625 19.8871 114.2 20.2549C114.776 20.6387 115.52 20.8306 116.431 20.8306C118.782 20.8306 119.957 19.6872 119.957 17.4003V16.033C119.062 17.3763 117.726 18.048 115.951 18.048C114.832 18.048 113.832 17.8001 112.953 17.3043C112.073 16.7926 111.386 16.073 110.89 15.1454C110.394 14.2019 110.146 13.0904 110.146 11.8111C110.146 10.5797 110.394 9.49221 110.89 8.54868C111.402 7.60515 112.097 6.87751 112.977 6.36577C113.856 5.83803 114.848 5.57416 115.951 5.57416C116.879 5.57416 117.679 5.75807 118.35 6.12589C119.022 6.4937 119.566 6.99745 119.981 7.63714L120.269 5.71809H122.524ZM116.383 15.8651C117.455 15.8651 118.318 15.4972 118.974 14.7616C119.63 14.01 119.957 13.0425 119.957 11.8591C119.957 10.6437 119.63 9.66013 118.974 8.9085C118.318 8.14089 117.455 7.75708 116.383 7.75708C115.312 7.75708 114.448 8.13289 113.792 8.88452C113.137 9.63614 112.809 10.6117 112.809 11.8111C112.809 13.0105 113.137 13.986 113.792 14.7376C114.448 15.4892 115.312 15.8651 116.383 15.8651ZM124.6 11.883C124.6 10.6197 124.848 9.5162 125.344 8.57267C125.855 7.61315 126.559 6.87751 127.455 6.36577C128.366 5.83803 129.406 5.57416 130.573 5.57416C131.756 5.57416 132.796 5.81404 133.691 6.2938C134.603 6.77357 135.315 7.45323 135.826 8.33279C136.354 9.21235 136.626 10.2439 136.642 11.4273C136.642 11.7471 136.618 12.0749 136.57 12.4108H127.311V12.5547C127.375 13.6262 127.71 14.4738 128.318 15.0974C128.926 15.7211 129.733 16.033 130.741 16.033C131.541 16.033 132.212 15.8491 132.756 15.4813C133.3 15.0974 133.66 14.5617 133.835 13.8741H136.426C136.202 15.1214 135.595 16.1449 134.603 16.9445C133.628 17.7441 132.404 18.1439 130.933 18.1439C129.653 18.1439 128.534 17.8881 127.575 17.3763C126.631 16.8486 125.895 16.1129 125.368 15.1694C124.856 14.2259 124.6 13.1304 124.6 11.883ZM134.003 10.5157C133.891 9.62015 133.532 8.9245 132.924 8.42874C132.332 7.917 131.581 7.66112 130.669 7.66112C129.821 7.66112 129.086 7.92499 128.462 8.45273C127.854 8.96448 127.503 9.65213 127.407 10.5157H134.003ZM0.292969 1V7.4H12.8561C11.6996 8.27416 10.5982 9.23161 9.56141 10.2684C3.62693 16.2029 0.292969 24.2518 0.292969 32.6444H6.69297C6.69297 25.9492 9.35265 19.5282 14.0869 14.7939C18.8212 10.0597 25.2422 7.4 31.9374 7.4V1H0.292969ZM25.5374 16.8232V33H31.9374V15.5778V11.3111V9.17778C25.7137 9.17778 19.7448 11.6502 15.344 16.051C10.9431 20.4519 8.47075 26.4207 8.47075 32.6444H14.8707C14.8707 28.1181 16.6688 23.7771 19.8695 20.5765C21.5038 18.9421 23.4355 17.6735 25.5374 16.8232ZM37.065 22.5V33H38.865V25.605L41.85 31.53H43.26L46.23 25.59V33H48.03V22.5H45.885L42.555 29.28L39.195 22.5H37.065ZM50.4757 32.865C50.8857 33.075 51.4007 33.18 52.0207 33.18C52.3407 33.18 52.6257 33.145 52.8757 33.075C53.1357 33.005 53.3657 32.91 53.5657 32.79C53.7657 32.66 53.9407 32.51 54.0907 32.34C54.2507 32.17 54.3807 31.985 54.4807 31.785L54.6607 33H56.1907V28.32C56.1907 27.68 56.0557 27.135 55.7857 26.685C55.5257 26.225 55.1457 25.875 54.6457 25.635C54.1457 25.385 53.5407 25.26 52.8307 25.26C52.2407 25.26 51.6957 25.37 51.1957 25.59C50.7057 25.8 50.3107 26.1 50.0107 26.49C49.7107 26.87 49.5307 27.33 49.4707 27.87H51.2407C51.3107 27.49 51.4907 27.21 51.7807 27.03C52.0707 26.84 52.4207 26.745 52.8307 26.745C53.1907 26.745 53.4857 26.81 53.7157 26.94C53.9457 27.07 54.1157 27.27 54.2257 27.54C54.3357 27.8 54.3907 28.13 54.3907 28.53H52.4857C51.7857 28.53 51.1957 28.63 50.7157 28.83C50.2357 29.02 49.8707 29.29 49.6207 29.64C49.3807 29.99 49.2607 30.405 49.2607 30.885C49.2607 31.295 49.3607 31.675 49.5607 32.025C49.7607 32.375 50.0657 32.655 50.4757 32.865ZM53.1907 31.605C52.9707 31.705 52.7157 31.755 52.4257 31.755C52.1657 31.755 51.9407 31.715 51.7507 31.635C51.5607 31.555 51.4157 31.44 51.3157 31.29C51.2157 31.14 51.1657 30.96 51.1657 30.75C51.1657 30.54 51.2157 30.355 51.3157 30.195C51.4157 30.035 51.5807 29.915 51.8107 29.835C52.0407 29.745 52.3307 29.7 52.6807 29.7H54.3457V29.73C54.3157 30 54.2557 30.255 54.1657 30.495C54.0757 30.735 53.9457 30.955 53.7757 31.155C53.6157 31.345 53.4207 31.495 53.1907 31.605ZM57.514 25.44V33H59.314V29.385C59.314 28.955 59.369 28.6 59.479 28.32C59.589 28.03 59.739 27.805 59.929 27.645C60.129 27.475 60.364 27.355 60.634 27.285C60.904 27.205 61.189 27.165 61.489 27.165H62.119V25.26C61.679 25.26 61.274 25.325 60.904 25.455C60.544 25.585 60.229 25.77 59.959 26.01C59.689 26.24 59.464 26.52 59.284 26.85L59.119 25.44H57.514ZM64.6759 29.1942L67.7509 33H70.0009L66.4333 28.9082L69.5509 25.44H67.4059L64.6759 28.5522V22.2H62.8759V33H64.6759V29.1942ZM71.5703 32.7C72.1403 33.02 72.8003 33.18 73.5503 33.18C74.1403 33.18 74.6703 33.075 75.1403 32.865C75.6103 32.645 76.0053 32.35 76.3253 31.98C76.6453 31.6 76.8753 31.175 77.0153 30.705H75.1853C75.0553 31.005 74.8503 31.245 74.5703 31.425C74.3003 31.605 73.9553 31.695 73.5353 31.695C73.1553 31.695 72.8103 31.61 72.5003 31.44C72.2003 31.26 71.9603 31 71.7803 30.66C71.6361 30.3717 71.5531 30.0367 71.5312 29.655H77.1953C77.2153 29.525 77.2253 29.4 77.2253 29.28V28.95C77.2253 28.26 77.0753 27.64 76.7753 27.09C76.4753 26.53 76.0503 26.085 75.5003 25.755C74.9503 25.425 74.3053 25.26 73.5653 25.26C72.8053 25.26 72.1353 25.43 71.5553 25.77C70.9853 26.11 70.5403 26.58 70.2203 27.18C69.9103 27.78 69.7553 28.48 69.7553 29.28C69.7553 30.05 69.9153 30.73 70.2353 31.32C70.5553 31.91 71.0003 32.37 71.5703 32.7ZM71.5594 28.5C71.6007 28.2126 71.6793 27.9626 71.7953 27.75C71.9753 27.41 72.2203 27.155 72.5303 26.985C72.8403 26.815 73.1803 26.73 73.5503 26.73C74.0703 26.73 74.5053 26.89 74.8553 27.21C75.2053 27.52 75.3903 27.95 75.4103 28.5H71.5594ZM80.0907 32.76C80.4707 32.92 80.9157 33 81.4257 33H82.7157V31.47H81.7857C81.3957 31.47 81.1157 31.4 80.9457 31.26C80.7857 31.11 80.7057 30.845 80.7057 30.465V26.955H82.7607V25.44H80.7057V23.445H79.1157L78.9057 25.44H77.6157V26.955H78.9057V30.465C78.9057 31.095 79.0107 31.595 79.2207 31.965C79.4307 32.335 79.7207 32.6 80.0907 32.76Z" fill="#fff"/>
</svg>
